HIERARCHY
ROOT Hips
{
	OFFSET 0.000000 0.000000 0.000000
	CHANNELS 6 Xposition Yposition Zposition Zrotation Yrotation Xrotation 
	JOINT LHipJoint
	{
		OFFSET 0.000000 0.000000 0.000000
		CHANNELS 3 Zrotation Yrotation Xrotation
		JOINT LeftUpLeg
		{
			OFFSET 1.363060 -1.794630 0.839290
			CHANNELS 3 Zrotation Yrotation Xrotation
			JOINT LeftLeg
			{
				OFFSET 2.448110 -6.726130 0.000000
				CHANNELS 3 Zrotation Yrotation Xrotation
				JOINT LeftFoot
				{
					OFFSET 2.562200 -7.039590 0.000000
					CHANNELS 3 Zrotation Yrotation Xrotation
					JOINT LeftToeBase
					{
						OFFSET 0.157640 -0.433110 2.322550
						CHANNELS 3 Zrotation Yrotation Xrotation
						End Site
						{
							OFFSET 0.000000 0.000000 0.000000
						}
					}
				}
			}
		}
	}
	JOINT RHipJoint
	{
		OFFSET 0.000000 0.000000 0.000000
		CHANNELS 3 Zrotation Yrotation Xrotation
		JOINT RightUpLeg
		{
			OFFSET -1.305520 -1.794630 0.839290
			CHANNELS 3 Zrotation Yrotation Xrotation
			JOINT RightLeg
			{
				OFFSET -2.542530 -6.985550 0.000000
				CHANNELS 3 Zrotation Yrotation Xrotation
				JOINT RightFoot
				{
					OFFSET -2.568260 -7.056230 0.000000
					CHANNELS 3 Zrotation Yrotation Xrotation
					JOINT RightToeBase
					{
						OFFSET -0.164730 -0.452590 2.363150
						CHANNELS 3 Zrotation Yrotation Xrotation
						End Site
						{
							OFFSET 0.000000 0.000000 0.000000
						}
					}
				}
			}
		}
	}
	JOINT LowerBack
	{
		OFFSET 0.000000 0.000000 0.000000
		CHANNELS 3 Zrotation Yrotation Xrotation
		JOINT Spine
		{
			OFFSET 0.028270 2.035590 -0.193380
			CHANNELS 3 Zrotation Yrotation Xrotation
			JOINT Spine1
			{
				OFFSET 0.056720 2.048850 -0.042750
				CHANNELS 3 Zrotation Yrotation Xrotation
				JOINT Neck
				{
					OFFSET 0.000000 0.000000 0.000000
					CHANNELS 3 Zrotation Yrotation Xrotation
					JOINT Neck1
					{
						OFFSET -0.054170 1.746240 0.172020
						CHANNELS 3 Zrotation Yrotation Xrotation
						JOINT Head
						{
							OFFSET 0.104070 1.761360 -0.123970
							CHANNELS 3 Zrotation Yrotation Xrotation
							End Site
							{
								OFFSET 0.000000 0.000000 0.000000
							}
						}
					}
				}
				JOINT LeftShoulder
				{
					OFFSET 0.000000 0.000000 0.000000
					CHANNELS 3 Zrotation Yrotation Xrotation
					JOINT LeftArm
					{
						OFFSET 3.362410 1.200890 -0.311210
						CHANNELS 3 Zrotation Yrotation Xrotation
						JOINT LeftForeArm
						{
							OFFSET 4.983000 -0.000000 -0.000000
							CHANNELS 3 Zrotation Yrotation Xrotation
							JOINT LeftHand
							{
								OFFSET 3.483560 -0.000000 -0.000000
								CHANNELS 3 Zrotation Yrotation Xrotation
								JOINT LeftFingerBase
								{
									OFFSET 0.000000 0.000000 0.000000
									CHANNELS 3 Zrotation Yrotation Xrotation
									JOINT LeftHandIndex1
									{
										OFFSET 0.715260 -0.000000 -0.000000
										CHANNELS 3 Zrotation Yrotation Xrotation
										End Site
										{
											OFFSET 0.000000 0.000000 0.000000
										}
									}
								}
								JOINT LThumb
								{
									OFFSET 0.000000 0.000000 0.000000
									CHANNELS 3 Zrotation Yrotation Xrotation
									End Site
									{
										OFFSET 0.000000 0.000000 0.000000
									}
								}
							}
						}
					}
				}
				JOINT RightShoulder
				{
					OFFSET 0.000000 0.000000 0.000000
					CHANNELS 3 Zrotation Yrotation Xrotation
					JOINT RightArm
					{
						OFFSET -3.136600 1.374050 -0.404650
						CHANNELS 3 Zrotation Yrotation Xrotation
						JOINT RightForeArm
						{
							OFFSET -5.241900 -0.000000 -0.000000
							CHANNELS 3 Zrotation Yrotation Xrotation
							JOINT RightHand
							{
								OFFSET -3.444170 -0.000000 -0.000000
								CHANNELS 3 Zrotation Yrotation Xrotation
								JOINT RightFingerBase
								{
									OFFSET 0.000000 0.000000 0.000000
									CHANNELS 3 Zrotation Yrotation Xrotation
									JOINT RightHandIndex1
									{
										OFFSET -0.622530 -0.000000 -0.000000
										CHANNELS 3 Zrotation Yrotation Xrotation
										End Site
										{
											OFFSET 0.000000 0.000000 0.000000
										}
									}
								}
								JOINT RThumb
								{
									OFFSET 0.000000 0.000000 0.000000
									CHANNELS 3 Zrotation Yrotation Xrotation
									End Site
									{
										OFFSET 0.000000 0.000000 0.000000
									}
								}
							}
						}
					}
				}
			}
		}
	}
}
MOTION
Frames: 5
Frame Time: 0.008333
2.751722 17.181682 -6.740690 -167.398453 -81.809236 161.971410 5.709190 0.106322 -2.299349 -28.244319 13.807500 2.059094 0.997774 7.100657 19.241932 -0.895030 17.208504 -28.015310 0.201800 2.892800 7.980600 -7.359385 -0.421436 -1.957309 23.915827 -0.290450 -6.936425 -4.606024 -13.786281 41.614067 0.553007 -15.904653 -30.453010 -0.001600 -0.259800 0.713800 -0.307533 -0.380794 2.799431 1.167519 -0.408519 -0.915385 0.196868 -0.171139 3.281122 -5.454333 -4.126300 -2.990279 5.806324 -6.241390 6.414136 0.722800 -2.955200 0.947900 -1.751000 -2.299687 0.385368 -80.930568 -2.484829 12.033485 4.958259 -15.768708 -1.649707 -0.878376 -1.583770 -5.656260 9.195521 19.409342 3.674300 -7.125000 0.000000 0.000000 -18.208800 50.239100 -2.421700 4.432024 2.132502 -0.223697 74.680711 -5.236186 9.515987 -8.778941 21.206630 -2.869056 0.864078 0.901303 15.253272 -6.756535 -13.208937 1.825200 7.125000 0.000000 0.000000 18.293200 -43.601400 0.654700 
2.753401 17.179793 -6.722012 -166.807382 -81.963389 161.344875 5.717245 0.109604 -2.299198 -28.247037 13.817187 2.077136 0.998142 7.102576 19.247756 -0.889586 17.112963 -27.908825 0.198600 2.870000 7.916900 -7.357863 -0.420061 -1.959632 23.863486 -0.348325 -7.020530 -4.657834 -13.839224 41.810754 0.580112 -15.964863 -30.377611 -0.001300 -0.234600 0.644700 -0.317270 -0.373738 2.818927 1.161808 -0.398587 -0.911711 0.191607 -0.165076 3.285752 -5.517607 -4.192235 -2.968620 5.838723 -6.328999 6.427138 0.760100 -2.998000 0.959400 -1.764083 -2.295502 0.386822 -80.941716 -2.447129 11.755048 4.879772 -15.652214 -1.632118 -0.869086 -1.598281 -5.523708 8.980788 19.630291 3.630800 -7.125000 0.000000 0.000000 -18.529500 50.432100 -2.557100 4.430047 2.131651 -0.219791 74.644053 -5.138246 9.348425 -8.727230 21.132049 -2.853512 0.870233 0.908097 15.428258 -6.712269 -13.362380 1.834600 7.125000 0.000000 0.000000 18.385500 -43.752500 0.587100 
2.755080 17.178114 -6.703649 -166.217021 -82.119117 160.720604 5.725355 0.112759 -2.299515 -28.251722 13.832262 2.095012 0.997959 7.102980 19.248900 -0.885119 17.016534 -27.794065 0.195200 2.845500 7.848900 -7.356291 -0.418440 -1.962106 23.810203 -0.395413 -7.098797 -4.708912 -13.890923 42.003961 0.608393 -16.033330 -30.306750 -0.001000 -0.207600 0.570400 -0.332470 -0.365165 2.833666 1.155849 -0.386318 -0.906818 0.188976 -0.158238 3.298127 -5.580977 -4.261831 -2.953229 5.871025 -6.421090 6.440361 0.797100 -3.043000 0.972200 -1.778071 -2.290706 0.388190 -80.943138 -2.416444 11.516218 4.806235 -15.542795 -1.614173 -0.858686 -1.606930 -5.386220 8.759389 19.756144 3.566400 -7.125000 0.000000 0.000000 -18.814200 50.527600 -2.644100 4.429399 2.130267 -0.215698 74.601130 -5.037416 9.165631 -8.672658 21.053004 -2.835978 0.871180 0.908998 15.682313 -6.633119 -13.403286 1.819000 7.125000 0.000000 0.000000 18.473400 -43.786000 0.574200 
2.756863 17.176645 -6.685601 -165.607604 -82.274754 160.081302 5.733397 0.115778 -2.299762 -28.256123 13.848744 2.107725 0.997241 7.101556 19.244332 -0.881770 16.919634 -27.671223 0.191800 2.820500 7.779300 -7.354900 -0.416370 -1.963942 23.761052 -0.427069 -7.177420 -4.759041 -13.942370 42.194382 0.638566 -16.113338 -30.242060 -0.000800 -0.179900 0.494200 -0.350126 -0.354190 2.844805 1.149763 -0.370872 -0.902446 0.188215 -0.149808 3.309062 -5.644101 -4.334128 -2.935863 5.903861 -6.517004 6.452868 0.834100 -3.090100 0.984700 -1.792308 -2.286289 0.389347 -80.935515 -2.387694 11.308362 4.737029 -15.440294 -1.596570 -0.846557 -1.612584 -5.230085 8.510521 19.829798 3.481300 -7.125000 0.000000 0.000000 -19.102500 50.566200 -2.705900 4.429159 2.128951 -0.211873 74.555666 -4.941143 8.989527 -8.619131 20.975611 -2.818467 0.869565 0.907642 15.974235 -6.532968 -13.396160 1.791100 7.125000 0.000000 0.000000 18.565000 -43.769100 0.585300 
2.758542 17.175386 -6.667868 -165.001984 -82.431286 159.451074 5.741239 0.118633 -2.300201 -28.262506 13.872676 2.117942 0.995518 7.097646 19.232038 -0.879716 16.822065 -27.538289 0.188200 2.794000 7.705700 -7.353720 -0.414024 -1.965545 23.711031 -0.444509 -7.253392 -4.808747 -13.993594 42.383517 0.664777 -16.186052 -30.189291 -0.000600 -0.158700 0.436100 -0.374986 -0.341825 2.850519 1.143554 -0.353496 -0.897762 0.191096 -0.140643 3.321896 -5.707451 -4.407512 -2.913957 5.937677 -6.615218 6.462940 0.871800 -3.138300 0.994500 -1.806633 -2.281493 0.390429 -80.918541 -2.352094 11.157127 4.681078 -15.359656 -1.582918 -0.830982 -1.620802 -5.087492 8.213246 19.920641 3.379400 -7.125000 0.000000 0.000000 -19.448900 50.615500 -2.782500 4.429182 2.126654 -0.208160 74.507645 -4.852908 8.832010 -8.571608 20.906918 -2.802482 0.866726 0.903870 16.286519 -6.437405 -13.348776 1.759100 7.125000 0.000000 0.000000 18.639000 -43.711900 0.615200 
